<svg height="100%" viewBox="0 0 21 18" fill="none" xmlns="http://www.w3.org/2000/svg">
<path d="M10.5 2.46875C8.12292 2.46875 6.16875 3.56719 4.67032 4.98105C3.26667 6.30957 2.29688 7.88672 1.80105 9C2.29688 10.1133 3.26667 11.6904 4.66667 13.0189C6.16875 14.4328 8.12292 15.5312 10.5 15.5312C12.8771 15.5312 14.8313 14.4328 16.3297 13.0189C17.7333 11.6904 18.7031 10.1133 19.199 9C18.7031 7.88672 17.7333 6.30957 16.3333 4.98105C14.8313 3.56719 12.8771 2.46875 10.5 2.46875ZM3.47813 3.67852C5.19532 2.05312 7.55417 0.6875 10.5 0.6875C13.4458 0.6875 15.8047 2.05312 17.5219 3.67852C19.2281 5.29277 20.3693 7.21875 20.9125 8.54355C21.0328 8.83672 21.0328 9.16328 20.9125 9.45644C20.3693 10.7812 19.2281 12.7109 17.5219 14.3215C15.8047 15.9469 13.4458 17.3125 10.5 17.3125C7.55417 17.3125 5.19532 15.9469 3.47813 14.3215C1.77188 12.7109 0.630733 10.7812 0.0911499 9.45644C-0.0291626 9.16328 -0.0291626 8.83672 0.0911499 8.54355C0.630733 7.21875 1.77188 5.28906 3.47813 3.67852ZM10.5 11.9688C12.1115 11.9688 13.4167 10.6402 13.4167 9C13.4167 7.35977 12.1115 6.03125 10.5 6.03125C10.4745 6.03125 10.4526 6.03125 10.4271 6.03125C10.4745 6.22051 10.5 6.4209 10.5 6.625C10.5 7.93496 9.45365 9 8.16667 9C7.96615 9 7.76928 8.97402 7.58334 8.92578C7.58334 8.95176 7.58334 8.97402 7.58334 9C7.58334 10.6402 8.88855 11.9688 10.5 11.9688ZM10.5 4.25C11.7377 4.25 12.9247 4.75044 13.7998 5.64124C14.675 6.53204 15.1667 7.74022 15.1667 9C15.1667 10.2598 14.675 11.468 13.7998 12.3588C12.9247 13.2496 11.7377 13.75 10.5 13.75C9.26233 13.75 8.07534 13.2496 7.20017 12.3588C6.325 11.468 5.83334 10.2598 5.83334 9C5.83334 7.74022 6.325 6.53204 7.20017 5.64124C8.07534 4.75044 9.26233 4.25 10.5 4.25Z" fill="#060D2F" fill-opacity="0.5"/>
</svg>
