<svg height="100%" viewBox="0 0 87 40" fill="none" xmlns="http://www.w3.org/2000/svg">
<path d="M0.91 12V2.263H5.408C6.84667 2.263 7.83033 2.731 8.359 3.667C8.75767 4.37767 8.957 5.53467 8.957 7.138C8.957 8.71533 8.775 9.85933 8.411 10.57C7.917 11.5233 7.01133 12 5.694 12H0.91ZM1.989 3.212V11.051H5.161C6.14033 11.051 6.82933 10.7823 7.228 10.245C7.66133 9.66433 7.878 8.62867 7.878 7.138C7.878 5.63 7.66567 4.59867 7.241 4.044C6.825 3.48933 6.11867 3.212 5.122 3.212H1.989ZM10.4575 2.263H12.1735L17.6595 11.155V2.263H18.7385V12H17.0225L11.5365 3.199V12H10.4575V2.263ZM21.668 2.263V12H20.589V2.263H21.668ZM24.5885 8.191V12H23.5095V2.263H28.1505C29.0865 2.263 29.7495 2.47967 30.1395 2.913C30.5295 3.34633 30.7245 4.05267 30.7245 5.032C30.7245 6.228 30.4948 7.05567 30.0355 7.515C29.5848 7.96567 28.7355 8.191 27.4875 8.191H24.5885ZM24.5885 3.212V7.242H27.1755C28.0942 7.242 28.7225 7.11633 29.0605 6.865C29.4505 6.57033 29.6455 6.007 29.6455 5.175C29.6455 4.447 29.5458 3.94867 29.3465 3.68C29.1125 3.368 28.6618 3.212 27.9945 3.212H24.5885ZM33.2727 8.061V12H32.1937V2.263H36.8217C37.7924 2.263 38.503 2.47533 38.9537 2.9C39.413 3.316 39.6427 4.02233 39.6427 5.019C39.6427 5.747 39.543 6.31033 39.3437 6.709C39.0837 7.22033 38.633 7.541 37.9917 7.671C38.529 7.671 38.9234 7.84433 39.1747 8.191C39.4 8.503 39.5127 8.94933 39.5127 9.53V12H38.4337V9.79C38.4337 9.166 38.2777 8.724 37.9657 8.464C37.6624 8.19533 37.1944 8.061 36.5617 8.061H33.2727ZM33.2727 3.212V7.112H36.4577C37.2204 7.112 37.7534 6.982 38.0567 6.722C38.3947 6.436 38.5637 5.92467 38.5637 5.188C38.5637 4.45133 38.4294 3.94 38.1607 3.654C37.9007 3.35933 37.4544 3.212 36.8217 3.212H33.2727ZM41.0495 7.138C41.0495 5.084 41.3182 3.74067 41.8555 3.108C42.3929 2.47533 43.4935 2.159 45.1575 2.159C46.8129 2.159 47.9005 2.47533 48.4205 3.108C48.9492 3.732 49.2135 5.07533 49.2135 7.138C49.2135 9.18333 48.9492 10.5223 48.4205 11.155C47.8919 11.7877 46.7955 12.104 45.1315 12.104C43.4762 12.104 42.3885 11.7963 41.8685 11.181C41.3225 10.5397 41.0495 9.192 41.0495 7.138ZM42.1285 7.138C42.1285 8.87133 42.3019 9.97633 42.6485 10.453C42.9952 10.921 43.8272 11.155 45.1445 11.155C46.4532 11.155 47.2765 10.921 47.6145 10.453C47.9612 9.97633 48.1345 8.87133 48.1345 7.138C48.1345 5.38733 47.9655 4.278 47.6275 3.81C47.2982 3.342 46.4705 3.108 45.1445 3.108C43.8185 3.108 42.9822 3.34633 42.6355 3.823C42.2975 4.291 42.1285 5.396 42.1285 7.138ZM54.3162 3.212V12H53.2372V3.212H50.0912V2.263H57.4622V3.212H54.3162ZM59.7189 6.566H64.6719V7.515H59.7189V11.051H64.8799V12H58.6399V2.263H64.9059V3.212H59.7189V6.566ZM72.845 8.75H73.898C73.898 10.0327 73.6337 10.9123 73.105 11.389C72.5763 11.8657 71.5537 12.104 70.037 12.104C68.5203 12.104 67.5063 11.8007 66.995 11.194C66.4317 10.5267 66.15 9.18333 66.15 7.164C66.15 5.15333 66.4273 3.80567 66.982 3.121C67.502 2.47967 68.5203 2.159 70.037 2.159C71.519 2.159 72.5287 2.41467 73.066 2.926C73.534 3.37667 73.768 4.18267 73.768 5.344H72.715C72.6197 4.434 72.4333 3.849 72.156 3.589C71.818 3.26833 71.1117 3.108 70.037 3.108C68.9103 3.108 68.1607 3.368 67.788 3.888C67.4153 4.408 67.229 5.5 67.229 7.164C67.229 8.81933 67.411 9.89833 67.775 10.401C68.1477 10.9037 68.9017 11.155 70.037 11.155C71.1723 11.155 71.922 10.9947 72.286 10.674C72.6587 10.3533 72.845 9.712 72.845 8.75ZM76.2367 6.566H81.9307V2.263H83.0097V12H81.9307V7.515H76.2367V12H75.1577V2.263H76.2367V6.566Z" fill="#DAEEFE"/>
<path d="M0.9 20.65H4.875C7.44167 21.85 9.825 23.375 12.025 25.225C14.225 27.075 16.2167 29.1 18 31.3V20.65H19.025V35.775V40H18V34.975V33C16.3333 30.8667 14.525 28.9 12.575 27.1C10.6417 25.3 8.48333 23.75 6.1 22.45V40H0.9V20.65ZM27.5469 28.4V27.35H37.8969V28.4H27.5469ZM26.0969 21.7V38.95H37.0719V40H20.8969V20.65H36.4469V21.7H26.0969ZM56.6006 20.65C57.2006 23.3333 57.9423 25.9583 58.8256 28.525C59.7089 31.0917 60.7256 33.6167 61.8756 36.1C62.9756 33.6 63.9506 31.0667 64.8006 28.5C65.6673 25.9333 66.3923 23.3167 66.9756 20.65H68.0506C67.3006 24.0167 66.3506 27.3167 65.2006 30.55C64.0673 33.7833 62.7089 36.9333 61.1256 40H57.9506C54.9339 33.8167 52.7089 27.3667 51.2756 20.65H56.6006ZM52.6756 29.85C52.0756 31.6 51.4173 33.3167 50.7006 35C49.9839 36.6833 49.2006 38.35 48.3506 40H45.2256C43.7089 36.9 42.3923 33.7417 41.2756 30.525C40.1589 27.2917 39.2423 24 38.5256 20.65H43.8506C44.4506 23.3167 45.1839 25.9333 46.0506 28.5C46.9339 31.05 47.9506 33.5667 49.1006 36.05C49.6839 34.75 50.2256 33.45 50.7256 32.15C51.2423 30.85 51.7173 29.525 52.1506 28.175L52.6756 29.85ZM76.5537 21.675C76.2204 21.675 75.8704 21.7167 75.5037 21.8C75.1537 21.8667 74.8287 21.9833 74.5287 22.15C74.2287 22.3167 73.9787 22.5417 73.7787 22.825C73.5787 23.1083 73.4787 23.45 73.4787 23.85C73.4787 24.4167 73.6704 24.9083 74.0537 25.325C74.437 25.725 74.862 26.05 75.3287 26.3C76.1454 26.75 76.9204 27.2 77.6537 27.65C78.387 28.0833 79.162 28.5167 79.9787 28.95C80.4954 29.2333 80.9954 29.5667 81.4787 29.95C81.9787 30.3333 82.412 30.7583 82.7787 31.225C83.1454 31.6917 83.437 32.2 83.6537 32.75C83.887 33.3 84.0037 33.9 84.0037 34.55C84.0037 35.3667 83.812 36.1417 83.4287 36.875C83.1287 37.4583 82.737 37.95 82.2537 38.35C81.787 38.7333 81.2704 39.05 80.7037 39.3C80.1537 39.55 79.562 39.7333 78.9287 39.85C78.312 39.95 77.6954 40 77.0787 40H68.6787V39H76.1787C76.5287 39 76.8954 38.9667 77.2787 38.9C77.662 38.8167 78.0037 38.6917 78.3037 38.525C78.6204 38.3583 78.8787 38.1333 79.0787 37.85C79.2787 37.5667 79.3787 37.2083 79.3787 36.775C79.3787 36.425 79.3037 36.1083 79.1537 35.825C79.0037 35.525 78.812 35.2583 78.5787 35.025C78.3454 34.7917 78.087 34.5833 77.8037 34.4C77.5204 34.2167 77.2454 34.0583 76.9787 33.925L73.7287 32.225C73.1454 31.925 72.587 31.5583 72.0537 31.125C71.537 30.6917 71.0704 30.2083 70.6537 29.675C70.2537 29.125 69.9287 28.5417 69.6787 27.925C69.4454 27.3083 69.3287 26.6583 69.3287 25.975C69.3287 25.0417 69.5204 24.2417 69.9037 23.575C70.287 22.9083 70.7954 22.3583 71.4287 21.925C72.062 21.4917 72.7704 21.175 73.5537 20.975C74.3537 20.7583 75.1704 20.65 76.0037 20.65H82.2287V21.675H76.5537Z" fill="#DAEEFE"/>
</svg>
