<svg height="100%" viewBox="0 0 128 40" fill="none"
	xmlns="http://www.w3.org/2000/svg">
	<rect y="30" width="10" height="10" rx="2" fill="#546CCF"/>
	<rect x="20" y="30" width="10" height="10" rx="2" fill="#1E1E62"/>
	<rect x="10" y="30" width="10" height="10" rx="2" fill="#1E1E62"/>
	<rect x="20" y="10" width="10" height="10" rx="2" fill="#546CCF"/>
	<rect x="20" width="10" height="10" rx="2" fill="#97BBFE"/>
	<rect x="10" y="10" width="10" height="10" rx="2" fill="#97BBFE"/>
	<rect y="20" width="10" height="10" rx="2" fill="#97BBFE"/>
	<rect x="20" y="20" width="10" height="10" rx="2" fill="#1E1E62"/>
	<rect x="10" y="20" width="10" height="10" rx="2" fill="#546CCF"/>
	<path d="M41.91 12V2.263H46.408C47.8467 2.263 48.8303 2.731 49.359 3.667C49.7577 4.37767 49.957 5.53467 49.957 7.138C49.957 8.71533 49.775 9.85933 49.411 10.57C48.917 11.5233 48.0113 12 46.694 12H41.91ZM42.989 3.212V11.051H46.161C47.1403 11.051 47.8293 10.7823 48.228 10.245C48.6613 9.66433 48.878 8.62867 48.878 7.138C48.878 5.63 48.6657 4.59867 48.241 4.044C47.825 3.48933 47.1187 3.212 46.122 3.212H42.989ZM51.4575 2.263H53.1735L58.6595 11.155V2.263H59.7385V12H58.0225L52.5365 3.199V12H51.4575V2.263ZM62.668 2.263V12H61.589V2.263H62.668ZM65.5885 8.191V12H64.5095V2.263H69.1505C70.0865 2.263 70.7495 2.47967 71.1395 2.913C71.5295 3.34633 71.7245 4.05267 71.7245 5.032C71.7245 6.228 71.4948 7.05567 71.0355 7.515C70.5848 7.96567 69.7355 8.191 68.4875 8.191H65.5885ZM65.5885 3.212V7.242H68.1755C69.0942 7.242 69.7225 7.11633 70.0605 6.865C70.4505 6.57033 70.6455 6.007 70.6455 5.175C70.6455 4.447 70.5458 3.94867 70.3465 3.68C70.1125 3.368 69.6618 3.212 68.9945 3.212H65.5885ZM74.2727 8.061V12H73.1937V2.263H77.8217C78.7924 2.263 79.503 2.47533 79.9537 2.9C80.413 3.316 80.6427 4.02233 80.6427 5.019C80.6427 5.747 80.543 6.31033 80.3437 6.709C80.0837 7.22033 79.633 7.541 78.9917 7.671C79.529 7.671 79.9234 7.84433 80.1747 8.191C80.4 8.503 80.5127 8.94933 80.5127 9.53V12H79.4337V9.79C79.4337 9.166 79.2777 8.724 78.9657 8.464C78.6624 8.19533 78.1944 8.061 77.5617 8.061H74.2727ZM74.2727 3.212V7.112H77.4577C78.2204 7.112 78.7534 6.982 79.0567 6.722C79.3947 6.436 79.5637 5.92467 79.5637 5.188C79.5637 4.45133 79.4294 3.94 79.1607 3.654C78.9007 3.35933 78.4544 3.212 77.8217 3.212H74.2727ZM82.0495 7.138C82.0495 5.084 82.3182 3.74067 82.8555 3.108C83.3929 2.47533 84.4935 2.159 86.1575 2.159C87.8129 2.159 88.9005 2.47533 89.4205 3.108C89.9492 3.732 90.2135 5.07533 90.2135 7.138C90.2135 9.18333 89.9492 10.5223 89.4205 11.155C88.8919 11.7877 87.7955 12.104 86.1315 12.104C84.4762 12.104 83.3885 11.7963 82.8685 11.181C82.3225 10.5397 82.0495 9.192 82.0495 7.138ZM83.1285 7.138C83.1285 8.87133 83.3019 9.97633 83.6485 10.453C83.9952 10.921 84.8272 11.155 86.1445 11.155C87.4532 11.155 88.2765 10.921 88.6145 10.453C88.9612 9.97633 89.1345 8.87133 89.1345 7.138C89.1345 5.38733 88.9655 4.278 88.6275 3.81C88.2982 3.342 87.4705 3.108 86.1445 3.108C84.8185 3.108 83.9822 3.34633 83.6355 3.823C83.2975 4.291 83.1285 5.396 83.1285 7.138ZM95.3162 3.212V12H94.2372V3.212H91.0912V2.263H98.4622V3.212H95.3162ZM100.719 6.566H105.672V7.515H100.719V11.051H105.88V12H99.6399V2.263H105.906V3.212H100.719V6.566ZM113.845 8.75H114.898C114.898 10.0327 114.634 10.9123 114.105 11.389C113.576 11.8657 112.554 12.104 111.037 12.104C109.52 12.104 108.506 11.8007 107.995 11.194C107.432 10.5267 107.15 9.18333 107.15 7.164C107.15 5.15333 107.427 3.80567 107.982 3.121C108.502 2.47967 109.52 2.159 111.037 2.159C112.519 2.159 113.529 2.41467 114.066 2.926C114.534 3.37667 114.768 4.18267 114.768 5.344H113.715C113.62 4.434 113.433 3.849 113.156 3.589C112.818 3.26833 112.112 3.108 111.037 3.108C109.91 3.108 109.161 3.368 108.788 3.888C108.415 4.408 108.229 5.5 108.229 7.164C108.229 8.81933 108.411 9.89833 108.775 10.401C109.148 10.9037 109.902 11.155 111.037 11.155C112.172 11.155 112.922 10.9947 113.286 10.674C113.659 10.3533 113.845 9.712 113.845 8.75ZM117.237 6.566H122.931V2.263H124.01V12H122.931V7.515H117.237V12H116.158V2.263H117.237V6.566Z" fill="#546CCF"/>
	<path d="M41.9 20.65H45.875C48.4417 21.85 50.825 23.375 53.025 25.225C55.225 27.075 57.2167 29.1 59 31.3V20.65H60.025V35.775V40H59V34.975V33C57.3333 30.8667 55.525 28.9 53.575 27.1C51.6417 25.3 49.4833 23.75 47.1 22.45V40H41.9V20.65ZM68.5469 28.4V27.35H78.8969V28.4H68.5469ZM67.0969 21.7V38.95H78.0719V40H61.8969V20.65H77.4469V21.7H67.0969ZM97.6006 20.65C98.2006 23.3333 98.9423 25.9583 99.8256 28.525C100.709 31.0917 101.726 33.6167 102.876 36.1C103.976 33.6 104.951 31.0667 105.801 28.5C106.667 25.9333 107.392 23.3167 107.976 20.65H109.051C108.301 24.0167 107.351 27.3167 106.201 30.55C105.067 33.7833 103.709 36.9333 102.126 40H98.9506C95.9339 33.8167 93.7089 27.3667 92.2756 20.65H97.6006ZM93.6756 29.85C93.0756 31.6 92.4173 33.3167 91.7006 35C90.9839 36.6833 90.2006 38.35 89.3506 40H86.2256C84.7089 36.9 83.3923 33.7417 82.2756 30.525C81.1589 27.2917 80.2423 24 79.5256 20.65H84.8506C85.4506 23.3167 86.1839 25.9333 87.0506 28.5C87.9339 31.05 88.9506 33.5667 90.1006 36.05C90.6839 34.75 91.2256 33.45 91.7256 32.15C92.2423 30.85 92.7173 29.525 93.1506 28.175L93.6756 29.85ZM117.554 21.675C117.22 21.675 116.87 21.7167 116.504 21.8C116.154 21.8667 115.829 21.9833 115.529 22.15C115.229 22.3167 114.979 22.5417 114.779 22.825C114.579 23.1083 114.479 23.45 114.479 23.85C114.479 24.4167 114.67 24.9083 115.054 25.325C115.437 25.725 115.862 26.05 116.329 26.3C117.145 26.75 117.92 27.2 118.654 27.65C119.387 28.0833 120.162 28.5167 120.979 28.95C121.495 29.2333 121.995 29.5667 122.479 29.95C122.979 30.3333 123.412 30.7583 123.779 31.225C124.145 31.6917 124.437 32.2 124.654 32.75C124.887 33.3 125.004 33.9 125.004 34.55C125.004 35.3667 124.812 36.1417 124.429 36.875C124.129 37.4583 123.737 37.95 123.254 38.35C122.787 38.7333 122.27 39.05 121.704 39.3C121.154 39.55 120.562 39.7333 119.929 39.85C119.312 39.95 118.695 40 118.079 40H109.679V39H117.179C117.529 39 117.895 38.9667 118.279 38.9C118.662 38.8167 119.004 38.6917 119.304 38.525C119.62 38.3583 119.879 38.1333 120.079 37.85C120.279 37.5667 120.379 37.2083 120.379 36.775C120.379 36.425 120.304 36.1083 120.154 35.825C120.004 35.525 119.812 35.2583 119.579 35.025C119.345 34.7917 119.087 34.5833 118.804 34.4C118.52 34.2167 118.245 34.0583 117.979 33.925L114.729 32.225C114.145 31.925 113.587 31.5583 113.054 31.125C112.537 30.6917 112.07 30.2083 111.654 29.675C111.254 29.125 110.929 28.5417 110.679 27.925C110.445 27.3083 110.329 26.6583 110.329 25.975C110.329 25.0417 110.52 24.2417 110.904 23.575C111.287 22.9083 111.795 22.3583 112.429 21.925C113.062 21.4917 113.77 21.175 114.554 20.975C115.354 20.7583 116.17 20.65 117.004 20.65H123.229V21.675H117.554Z" fill="#1E1E62"/>
</svg>
