<svg height="100%" viewBox="0 0 24 25" fill="none"
	xmlns="http://www.w3.org/2000/svg">
	<path d="M24 22.6777L16.1357 14.8308C17.2071 13.3596 17.8446 11.5508 17.8446 9.59959C17.8446 4.69002 13.8429 0.692754 8.925 0.692754C4.00179 0.687481 0 4.68475 0 9.59432C0 14.5039 4.00179 18.5012 8.91964 18.5012C11.0518 18.5012 13.0071 17.7523 14.5446 16.5025L22.3661 24.3125L24 22.6777ZM8.91964 16.4445C5.1375 16.4445 2.05714 13.3701 2.05714 9.59432C2.05714 5.81854 5.1375 2.74412 8.91964 2.74412C12.7018 2.74412 15.7821 5.81854 15.7821 9.59432C15.7821 13.3701 12.7071 16.4445 8.91964 16.4445Z" fill="#97BBFE"/>
</svg>
