<svg height="100%" viewBox="0 0 21 21" fill="none" xmlns="http://www.w3.org/2000/svg">
<path d="M10.5022 15.6277C7.66453 15.6277 5.37563 13.3383 5.37563 10.5C5.37563 7.66166 7.66453 5.37225 10.5022 5.37225C13.3399 5.37225 15.6288 7.66166 15.6288 10.5C15.6288 13.3383 13.3399 15.6277 10.5022 15.6277ZM10.5022 7.1663C8.66843 7.1663 7.16927 8.66133 7.16927 10.5C7.16927 12.3387 8.66397 13.8337 10.5022 13.8337C12.3405 13.8337 13.8352 12.3387 13.8352 10.5C13.8352 8.66133 12.336 7.1663 10.5022 7.1663ZM17.0343 15.8375C17.0343 15.1725 16.4989 14.6415 15.8385 14.6415C15.1737 14.6415 14.6428 15.177 14.6428 15.8375C14.6428 16.498 15.1782 17.0335 15.8385 17.0335C16.4989 17.0335 17.0343 16.498 17.0343 15.8375ZM20.4297 14.6236C20.3539 16.2258 19.988 17.6449 18.8146 18.8142C17.6456 19.9834 16.2267 20.3494 14.6249 20.4297C12.9741 20.5234 8.02593 20.5234 6.37507 20.4297C4.77775 20.3538 3.3589 19.9879 2.18544 18.8186C1.01199 17.6494 0.650586 16.2302 0.570273 14.6281C0.476576 12.9768 0.476576 8.02761 0.570273 6.37638C0.646124 4.77424 1.01199 3.35507 2.18544 2.18582C3.3589 1.01657 4.77328 0.65062 6.37507 0.57029C8.02593 0.47657 12.9741 0.47657 14.6249 0.57029C16.2267 0.646156 17.6456 1.0121 18.8146 2.18582C19.9835 3.35507 20.3494 4.77424 20.4297 6.37638C20.5234 8.02761 20.5234 12.9724 20.4297 14.6236ZM18.297 4.60465C17.949 3.72995 17.2752 3.05606 16.3963 2.7035C15.08 2.18136 11.9568 2.30185 10.5022 2.30185C9.04769 2.30185 5.91997 2.18582 4.6082 2.7035C3.73369 3.0516 3.05996 3.72548 2.70747 4.60465C2.18544 5.92118 2.30591 9.04513 2.30591 10.5C2.30591 11.9549 2.18991 15.0833 2.70747 16.3953C3.05549 17.2701 3.72922 17.9439 4.6082 18.2965C5.92443 18.8186 9.04769 18.6981 10.5022 18.6981C11.9568 18.6981 15.0845 18.8142 16.3963 18.2965C17.2708 17.9484 17.9445 17.2745 18.297 16.3953C18.819 15.0788 18.6985 11.9549 18.6985 10.5C18.6985 9.04513 18.819 5.91671 18.297 4.60465Z" fill="#DAEEFE" fill-opacity="0.8"/>
</svg>
