<svg height="100%" viewBox="0 0 19 15" fill="none"
	xmlns="http://www.w3.org/2000/svg">
	<path d="M18.5853 2.86229C18.3672 2.03085 17.7246 1.37603 16.9088 1.1538C15.4299 0.75 9.50005 0.75 9.50005 0.75C9.50005 0.75 3.57019 0.75 2.09133 1.1538C1.27546 1.37606 0.632895 2.03085 0.414805 2.86229C0.0185547 4.36934 0.0185547 7.51364 0.0185547 7.51364C0.0185547 7.51364 0.0185547 10.6579 0.414805 12.165C0.632895 12.9964 1.27546 13.624 2.09133 13.8462C3.57019 14.25 9.50005 14.25 9.50005 14.25C9.50005 14.25 15.4299 14.25 16.9088 13.8462C17.7246 13.624 18.3672 12.9964 18.5853 12.165C18.9815 10.6579 18.9815 7.51364 18.9815 7.51364C18.9815 7.51364 18.9815 4.36934 18.5853 2.86229ZM7.56064 10.3684V4.65885L12.5169 7.51371L7.56064 10.3684Z" fill="#DAEEFE" fill-opacity="0.8"/>
</svg>
